<svg xmlns="http://www.w3.org/2000/svg" xmlns:xlink="http://www.w3.org/1999/xlink" viewBox="0 0 20 20" width="20" height="20"><defs><style>.cls-1{fill:#303c42;}.cls-2{fill:#5c6671;}.cls-3{fill:url(#linear-gradient);}.cls-4{fill:url(#linear-gradient-2);}.cls-5{fill:#fff;}.cls-6{fill:#e11c26;}</style><linearGradient id="linear-gradient" x1="-913.94" y1="328.78" x2="-913.21" y2="329.13" gradientTransform="translate(19499.64 -7015.19) scale(21.33)" gradientUnits="userSpaceOnUse"><stop offset="0" stop-color="#fff" stop-opacity="0.2"/><stop offset="1" stop-color="#fff" stop-opacity="0"/></linearGradient><linearGradient id="linear-gradient-2" x1="-913.82" y1="328.72" x2="-913.34" y2="329.2" xlink:href="#linear-gradient"/></defs><title>SMALL</title><g id="Layer_2" data-name="Layer 2"><g id="Capa_1" data-name="Capa 1"><path class="cls-1" d="M18.18,0H1.82A1.83,1.83,0,0,0,0,1.82V18.18A1.82,1.82,0,0,0,1.82,20H18.18A1.81,1.81,0,0,0,20,18.18V1.82A1.82,1.82,0,0,0,18.18,0Z"/><path id="SVGCleanerId_0" data-name="SVGCleanerId 0" class="cls-2" d="M1.82.91H18.18a.91.91,0,0,1,.91.91V3.64H.91V1.82A.91.91,0,0,1,1.82.91Z"/><path id="SVGCleanerId_0-2" data-name="SVGCleanerId 0" class="cls-3" d="M1.82.91H18.18a.91.91,0,0,1,.91.91V3.64H.91V1.82A.91.91,0,0,1,1.82.91Z"/><path id="SVGCleanerId_0-3" data-name="SVGCleanerId 0" class="cls-4" d="M1.82.91H18.18a.91.91,0,0,1,.91.91V3.64H.91V1.82A.91.91,0,0,1,1.82.91Z"/><path class="cls-5" d="M18.18,19.09H1.82a.91.91,0,0,1-.91-.91V4.55H19.09V18.18A.91.91,0,0,1,18.18,19.09Z"/><circle class="cls-1" cx="2.27" cy="2.27" r="0.45"/><circle class="cls-1" cx="4.09" cy="2.27" r="0.45"/><circle class="cls-1" cx="5.91" cy="2.27" r="0.45"/><path class="cls-1" d="M13.64,19.55V4.09h-.91V19.55Z"/><path class="cls-6" d="M17.73,7.27H15a.46.46,0,0,0-.45.46.45.45,0,0,0,.45.45h2.73a.45.45,0,0,0,.45-.45A.46.46,0,0,0,17.73,7.27Z"/><path class="cls-6" d="M17.73,10H15a.46.46,0,0,0,0,.91h2.73a.46.46,0,0,0,0-.91Z"/><path class="cls-6" d="M17.73,12.73H15a.45.45,0,0,0-.45.45.46.46,0,0,0,.45.46h2.73a.46.46,0,0,0,.45-.46A.45.45,0,0,0,17.73,12.73Z"/><path class="cls-6" d="M16.82,15.46H15a.45.45,0,1,0,0,.9h1.82a.45.45,0,1,0,0-.9Z"/></g></g></svg>