<svg xmlns="http://www.w3.org/2000/svg" xmlns:xlink="http://www.w3.org/1999/xlink" viewBox="0 0 29.59 29.6"><defs><style>.cls-1{fill:#e11e26;}.cls-2{opacity:0.75;}.cls-3{fill:url(#radial-gradient);}</style><radialGradient id="radial-gradient" cx="558.8" cy="775.18" r="13.66" gradientTransform="translate(-153.71 -222.86) scale(0.32)" gradientUnits="userSpaceOnUse"><stop offset="0" stop-color="#fff"/><stop offset="0.03" stop-color="#fffef6"/><stop offset="0.26" stop-color="#fef8bc"/><stop offset="0.37" stop-color="#fdf5a5"/><stop offset="0.47" stop-color="#fded85"/><stop offset="0.65" stop-color="#fedf4e"/><stop offset="0.8" stop-color="#ffd526"/><stop offset="0.92" stop-color="#ffcf0e"/><stop offset="1" stop-color="#ffcd05"/></radialGradient></defs><title>popupicon</title><g id="Layer_2" data-name="Layer 2"><g id="Layer_1-2" data-name="Layer 1"><path class="cls-1" d="M0,6.74A11.12,11.12,0,0,1,1,4.88,3.4,3.4,0,0,1,3.77,3.64q3.5,0,7,0a1.82,1.82,0,0,1,2,1.85,1.78,1.78,0,0,1-2,1.78H5.8A1.9,1.9,0,0,0,3.64,9.41q0,6.42,0,12.84c0,.19,0,.37,0,.51l4.57-4.57c-.32,0-.67,0-1,0a1.73,1.73,0,0,1-1.65-1.61A1.76,1.76,0,0,1,6.9,14.63a3.3,3.3,0,0,1,.71-.07c1.64,0,3.28,0,4.93,0a1.84,1.84,0,0,1,2.08,2.08c0,1.73,0,3.46,0,5.19a1.81,1.81,0,0,1-3.53.55A6.84,6.84,0,0,1,11,21.14L6.5,25.61l-.13-.07H19.76a1.9,1.9,0,0,0,2.14-2.15c0-1.69,0-3.37,0-5.06a1.81,1.81,0,1,1,3.61-.12c0,2.48.08,5,0,7.45a3.64,3.64,0,0,1-3.07,3.51H3.11A3.92,3.92,0,0,1,0,26.06Z"/><path class="cls-1" d="M29.18,11.54c0,.14-.11.27-.15.41a3.56,3.56,0,0,1-3.4,2.6c-2.5,0-5,0-7.51,0a3.5,3.5,0,0,1-3.5-3.5c0-2.5,0-5,0-7.51A3.55,3.55,0,0,1,17.29.13c.12,0,.23-.09.35-.13h8.43l.6.19a3.8,3.8,0,0,1,2.51,2.92ZM25.54,7.27c0-.58,0-1.17,0-1.75a1.83,1.83,0,0,0-1.88-1.88q-1.78,0-3.56,0A1.78,1.78,0,0,0,18.24,5.4c0,1.27,0,2.55,0,3.82a1.69,1.69,0,0,0,1.64,1.7c1.34.06,2.68.06,4,0a1.75,1.75,0,0,0,1.64-1.83C25.55,8.48,25.54,7.88,25.54,7.27Z"/><g class="cls-2"><path class="cls-3" d="M25.13,29.48a4.32,4.32,0,1,1,4.34-4.3,4.3,4.3,0,0,1-4.34,4.3Z"/><path class="cls-1" d="M25.13,20.93a4.21,4.21,0,0,1,4.21,4.21,4.16,4.16,0,0,1-4.21,4.13,4.21,4.21,0,0,1-4.21-4.09h0a4.17,4.17,0,0,1,4.21-4.25m0-.33a4.47,4.47,0,0,0-4.46,4.46,4.54,4.54,0,0,0,4.46,4.54,4.47,4.47,0,0,0,4.46-4.46h0A4.57,4.57,0,0,0,25.13,20.6Z"/><path class="cls-1" d="M26.64,23.34v2.25l-.2-.12c0-.12-.12-.2-.2-.33h0c-.12-.12-.33-.2-.45-.33a5.47,5.47,0,0,0-1.55-1.1,2.44,2.44,0,0,0-.86-.45h-.65v3.48h.78V24.32h.25a2.94,2.94,0,0,1,1.31.86h0a12.83,12.83,0,0,1,1.39,1.64h.86V23.34Z"/></g></g></g></svg>