<?xml version="1.0" encoding="utf-8"?>
<!-- Generator: Adobe Illustrator 21.1.0, SVG Export Plug-In . SVG Version: 6.00 Build 0)  -->
<svg version="1.1" id="Layer_1" xmlns="http://www.w3.org/2000/svg" xmlns:xlink="http://www.w3.org/1999/xlink" x="0px" y="0px"
	 viewBox="0 0 20 20" style="enable-background:new 0 0 20 20;" xml:space="preserve">
<style type="text/css">
	.st0{fill:none;stroke:#E11E26;stroke-width:3;stroke-miterlimit:10;}
	.st1{fill:url(#SVGID_1_);}
	.st2{fill:#E11E26;}
</style>
<polyline class="st0" points="17.4,14.5 17.4,18.3 1.8,18.3 1.8,2.7 5.5,2.7 "/>
<g>
	
		<radialGradient id="SVGID_1_" cx="508.6862" cy="-671.4828" r="21.4054" gradientTransform="matrix(0.32 0 0 -0.32 -150.71 -207.07)" gradientUnits="userSpaceOnUse">
		<stop  offset="0" style="stop-color:#FFFFFF"/>
		<stop  offset="3.000000e-02" style="stop-color:#FFFEF6"/>
		<stop  offset="0.26" style="stop-color:#FEF8BC"/>
		<stop  offset="0.37" style="stop-color:#FDF5A5"/>
		<stop  offset="0.47" style="stop-color:#FDED85"/>
		<stop  offset="0.65" style="stop-color:#FEDF4E"/>
		<stop  offset="0.8" style="stop-color:#FFD526"/>
		<stop  offset="0.92" style="stop-color:#FFCF0E"/>
		<stop  offset="1" style="stop-color:#FFCD05"/>
	</radialGradient>
	<path class="st1" d="M12.1,14.5c-3.7,0-6.8-3.1-6.8-6.8S8.4,1,12.1,1s6.8,3.1,6.8,6.8S15.9,14.5,12.1,14.5L12.1,14.5z"/>
	<path class="st2" d="M12.1,1.1c3.6,0,6.6,2.9,6.6,6.6s-3.1,6.5-6.6,6.5s-6.6-2.9-6.6-6.5l0,0l0,0C5.5,4,8.4,1.1,12.1,1.1 M12.1,0.6
		c-3.9,0-7,3.2-7,7s3.1,7.1,7,7.1s7-3.2,7-7l0,0l0,0C19.1,3.8,15.9,0.6,12.1,0.6z"/>
	<path class="st2" d="M14.5,4.9v3.2c0,0,0,0.2,0,0.3l-0.3-0.2c0-0.2-0.2-0.3-0.3-0.5l0,0c-0.2-0.2-0.5-0.3-0.7-0.5
		c-0.3-0.3-0.7-0.7-1.2-1c-0.3-0.2-0.7-0.5-1.2-0.7C10.4,5.2,9.9,5,9.4,4.9h-1v5.4h1.2V6.7c0,0,0-0.2,0-0.3h0.2h0.2
		c0.8,0.3,1.5,0.7,2,1.4l0,0l0,0c0.8,0.8,1.5,1.7,2.2,2.5h1.4V4.9H14.5z"/>
</g>
</svg>
