<?xml version="1.0" encoding="utf-8"?>
<!-- Generator: Adobe Illustrator 21.1.0, SVG Export Plug-In . SVG Version: 6.00 Build 0)  -->
<svg version="1.1" id="Layer_1" xmlns="http://www.w3.org/2000/svg" xmlns:xlink="http://www.w3.org/1999/xlink" x="0px" y="0px"
	 viewBox="0 0 30 30" style="enable-background:new 0 0 30 30;" xml:space="preserve">
<style type="text/css">
	.st0{fill:none;stroke:#E11E26;stroke-width:3;stroke-miterlimit:10;}
	.st1{fill:url(#SVGID_1_);}
	.st2{fill:#E11E26;}
</style>
<polyline class="st0" points="26.4,22.2 26.4,27.9 2.1,27.9 2.1,3.6 7.9,3.6 "/>
<g>
	
		<radialGradient id="SVGID_1_" cx="517.0309" cy="-662.8288" r="33.3836" gradientTransform="matrix(0.32 0 0 -0.32 -147.31 -200.47)" gradientUnits="userSpaceOnUse">
		<stop  offset="0" style="stop-color:#FFFFFF"/>
		<stop  offset="3.000000e-02" style="stop-color:#FFFEF6"/>
		<stop  offset="0.26" style="stop-color:#FEF8BC"/>
		<stop  offset="0.37" style="stop-color:#FDF5A5"/>
		<stop  offset="0.47" style="stop-color:#FDED85"/>
		<stop  offset="0.65" style="stop-color:#FEDF4E"/>
		<stop  offset="0.8" style="stop-color:#FFD526"/>
		<stop  offset="0.92" style="stop-color:#FFCF0E"/>
		<stop  offset="1" style="stop-color:#FFCD05"/>
	</radialGradient>
	<path class="st1" d="M18.2,22.1c-5.8,0-10.6-4.8-10.6-10.6S12.4,1,18.2,1s10.6,4.8,10.6,10.6S24.1,22.1,18.2,22.1L18.2,22.1z"/>
	<path class="st2" d="M18.2,1.2c5.6,0,10.3,4.5,10.3,10.3s-4.8,10.1-10.3,10.1S7.9,17.1,7.9,11.6l0,0l0,0C7.9,5.7,12.4,1.2,18.2,1.2
		 M18.2,0.4c-6.1,0-10.9,5-10.9,10.9s4.8,11.1,10.9,11.1s10.9-5,10.9-10.9l0,0l0,0C29.1,5.5,24.1,0.4,18.2,0.4z"/>
	<path class="st2" d="M21.9,7.1v5c0,0,0,0.3,0,0.5l-0.5-0.3c0-0.3-0.3-0.5-0.5-0.8l0,0c-0.3-0.3-0.8-0.5-1.1-0.8
		c-0.5-0.5-1.1-1.1-1.9-1.6c-0.5-0.3-1.1-0.8-1.9-1.1c-0.5-0.5-1.3-0.8-2.1-1.1h-1.6v8.5h1.9V10c0,0,0-0.3,0-0.5h0.3h0.3
		c1.3,0.5,2.4,1.1,3.2,2.1l0,0l0,0c1.3,1.3,2.4,2.6,3.4,4h2.1V7.1H21.9z"/>
</g>
</svg>
